<svg width="703" height="174" viewBox="0 0 703 174" fill="none" xmlns="http://www.w3.org/2000/svg">
<path d="M610.182 10.4771C610.182 16.2633 605.492 20.9536 599.705 20.9536C593.92 20.9536 589.23 16.2633 589.23 10.4771C589.23 4.69089 593.92 0.000537872 599.705 0.000537872C605.492 0.000537872 610.182 4.69089 610.182 10.4771Z" fill="#ED1D24"/>
<path d="M74.8976 74.7731C74.8976 67.1877 72.7631 61.2024 68.4942 56.8175C64.3437 52.4325 59.2449 50.24 53.1968 50.24C47.1487 50.24 41.9902 52.4325 37.7213 56.8175C33.5708 61.084 31.4952 67.0104 31.4952 74.595C31.4952 82.1805 33.5708 88.2254 37.7213 92.7288C41.9902 97.1137 47.1487 99.3062 53.1968 99.3062C59.2449 99.3062 64.3437 97.1137 68.4942 92.7288C72.7631 88.3438 74.8976 82.3586 74.8976 74.7731ZM44.3028 23.7513C51.2992 23.7513 57.4061 25.1735 62.6242 28.0179C67.96 30.8622 72.0517 34.5953 74.8976 39.218V25.1735H105.314V124.195C105.314 133.321 103.476 141.558 99.8005 148.907C96.2431 156.373 90.7293 162.298 83.2574 166.684C75.9056 171.069 66.7151 173.262 55.6866 173.262C40.9822 173.262 29.0642 169.765 19.9333 162.773C10.8024 155.899 5.58503 146.536 4.2805 134.684H34.3411C35.2903 138.477 37.5432 141.44 41.1007 143.572C44.6581 145.825 49.0463 146.95 54.2636 146.95C60.5486 146.95 65.5298 145.114 69.2057 141.44C73 137.884 74.8976 132.136 74.8976 124.195V110.151C71.9332 114.773 67.8415 118.566 62.6242 121.528C57.4061 124.373 51.2992 125.796 44.3028 125.796C36.1202 125.796 28.7088 123.721 22.0677 119.573C15.4274 115.306 10.1505 109.321 6.2369 101.618C2.44175 93.7948 0.544983 84.7879 0.544983 74.595C0.544983 64.4029 2.44175 55.4549 6.2369 47.751C10.1505 40.0471 15.4274 34.1215 22.0677 29.9734C28.7088 25.8253 36.1202 23.7513 44.3028 23.7513Z" fill="#EDEDED"/>
<path d="M143.876 41.7072C147.433 36.2554 151.88 31.9888 157.217 28.9068C162.553 25.7071 168.482 24.1069 175.004 24.1069V56.2851H166.644C159.055 56.2851 153.362 57.9441 149.568 61.263C145.773 64.4627 143.876 70.1514 143.876 78.3291V124.374H113.459V25.1737H143.876V41.7072Z" fill="#EDEDED"/>
<path d="M242.738 65.1736C242.738 59.9587 240.959 55.8107 237.401 52.7294C233.844 49.6482 229.397 48.1067 224.06 48.1067C218.961 48.1067 214.633 49.5885 211.075 52.5513C207.636 55.5141 205.502 59.7218 204.672 65.1736H242.738ZM273.866 73.1733C273.866 76.0184 273.688 78.9812 273.333 82.0624H204.494C204.968 88.2257 206.925 92.966 210.364 96.2842C213.921 99.4847 218.25 101.085 223.349 101.085C230.938 101.085 236.215 97.8844 239.18 91.485H271.554C269.894 98.0029 266.87 103.87 262.482 109.085C258.212 114.299 252.818 118.388 246.295 121.351C239.773 124.314 232.48 125.796 224.416 125.796C214.692 125.796 206.035 123.721 198.446 119.573C190.856 115.425 184.927 109.499 180.659 101.796C176.389 94.0925 174.255 85.0848 174.255 74.7735C174.255 64.4621 176.33 55.4553 180.48 47.7514C184.749 40.0475 190.679 34.1219 198.268 29.9738C205.858 25.8258 214.574 23.7517 224.416 23.7517C234.022 23.7517 242.56 25.7661 250.031 29.7957C257.502 33.8254 263.312 39.5737 267.463 47.0407C271.732 54.5069 273.866 63.2181 273.866 73.1733Z" fill="#EDEDED"/>
<path d="M372.822 25.1738L310.565 171.484H277.836L300.604 120.995L260.226 25.1738H294.201L317.146 87.2185L339.915 25.1738H372.822Z" fill="#EDEDED"/>
<path d="M401.427 125.973C393.956 125.973 387.256 124.728 381.327 122.24C375.398 119.633 370.714 116.077 367.275 111.574C363.836 106.951 361.939 101.677 361.583 95.7516H378.304C378.777 100.61 381.031 104.581 385.062 107.662C389.214 110.744 394.609 112.284 401.249 112.284C407.418 112.284 412.277 110.922 415.835 108.196C419.393 105.47 421.17 102.033 421.17 97.8844C421.17 93.6179 419.276 90.4771 415.481 88.4626C411.685 86.329 405.814 84.2549 397.87 82.2405C390.636 80.3438 384.707 78.4478 380.082 76.551C375.576 74.5366 371.663 71.6326 368.342 67.8399C365.141 63.9295 363.54 58.8331 363.54 52.5513C363.54 47.5741 365.022 43.0103 367.987 38.8622C370.951 34.7141 375.161 31.4548 380.616 29.0851C386.071 26.5961 392.297 25.3512 399.293 25.3512C410.085 25.3512 418.8 28.0771 425.441 33.5289C432.081 38.9815 435.639 46.4477 436.115 55.9291H419.925C419.57 50.8326 417.495 46.7442 413.699 43.6621C410.025 40.5809 405.044 39.0403 398.76 39.0403C392.948 39.0403 388.323 40.2844 384.885 42.7734C381.446 45.2624 379.727 48.5217 379.727 52.5513C379.727 55.751 380.735 58.4181 382.751 60.5518C384.885 62.5662 387.493 64.2252 390.577 65.529C393.778 66.7142 398.166 68.0768 403.739 69.6183C410.738 71.5142 416.428 73.411 420.816 75.3069C425.203 77.0844 428.939 79.8103 432.021 83.4846C435.224 87.1589 436.884 91.9589 437.001 97.8844C437.001 103.218 435.522 108.018 432.556 112.284C429.591 116.551 425.38 119.929 419.925 122.418C414.59 124.788 408.425 125.973 401.427 125.973Z" fill="#EDEDED"/>
<path d="M463.425 40.2848V97.7068C463.425 102.448 464.437 105.825 466.451 107.84C468.466 109.736 471.963 110.684 476.944 110.684H488.863V124.374H474.277C465.267 124.374 458.506 122.299 454 118.151C449.492 114.003 447.239 107.188 447.239 97.7068V40.2848H434.611V26.9518H447.239V2.41797H463.425V26.9518H488.863V40.2848H463.425Z" fill="#EDEDED"/>
<path d="M566.484 75.4847C566.484 68.137 565.001 61.7368 562.035 56.285C559.07 50.8332 555.04 46.6852 549.939 43.84C544.958 40.8772 539.447 39.3962 533.399 39.3962C527.351 39.3962 521.835 40.8184 516.854 43.6627C511.874 46.5071 507.901 50.6552 504.935 56.107C501.974 61.5588 500.491 67.9589 500.491 75.3067C500.491 82.7737 501.974 89.2924 504.935 94.8626C507.901 100.314 511.874 104.522 516.854 107.485C521.835 110.329 527.351 111.751 533.399 111.751C539.447 111.751 544.958 110.329 549.939 107.485C555.04 104.522 559.07 100.314 562.035 94.8626C565.001 89.2924 566.484 82.8333 566.484 75.4847ZM483.947 75.3067C483.947 65.3515 485.961 56.6404 489.995 49.1734C494.028 41.5887 499.54 35.7219 506.539 31.5739C513.651 27.4258 521.541 25.3517 530.195 25.3517C538.734 25.3517 546.144 27.1889 552.43 30.8624C558.715 34.5367 563.397 39.1593 566.484 44.7295V26.952H582.847V124.374H566.484V106.24C563.28 111.929 558.478 116.67 552.075 120.462C545.789 124.137 538.435 125.973 530.018 125.973C521.359 125.973 513.534 123.84 506.539 119.573C499.54 115.306 494.028 109.322 489.995 101.618C485.961 93.9142 483.947 85.1435 483.947 75.3067Z" fill="#EDEDED"/>
<path d="M607.204 124.373H591.018V26.9518H607.204V124.373Z" fill="#EDEDED"/>
<path d="M662.607 25.1738C674.466 25.1738 684.071 28.7885 691.426 36.0186C698.779 43.1294 702.453 53.44 702.453 66.9511V124.373H686.445V69.2628C686.445 59.5445 684.015 52.1371 679.152 47.0406C674.289 41.8257 667.648 39.2182 659.23 39.2182C650.693 39.2182 643.871 41.8845 638.774 47.2179C633.793 52.5512 631.304 60.314 631.304 70.5069V124.373H615.113V26.9513H631.304V40.8185C634.502 35.8405 638.834 31.9889 644.286 29.263C649.863 26.5371 655.967 25.1738 662.607 25.1738Z" fill="#EDEDED"/>
</svg>
