<svg xmlns="http://www.w3.org/2000/svg" width="1269" height="309" viewBox="0 0 1269 309" fill="none">
  <path d="M134.822 131.077C134.822 117.374 130.966 106.562 123.254 98.6402C115.756 90.7188 106.545 86.7581 95.6192 86.7581C84.6935 86.7581 75.3747 90.7188 67.6629 98.6402C60.1651 106.348 56.4154 117.054 56.4154 130.755C56.4154 144.458 60.1651 155.378 67.6629 163.514C75.3747 171.435 84.6935 175.396 95.6192 175.396C106.545 175.396 115.756 171.435 123.254 163.514C130.966 155.592 134.822 144.78 134.822 131.077ZM79.5523 38.9066C92.1913 38.9066 103.223 41.4757 112.65 46.614C122.289 51.7523 129.68 58.4961 134.822 66.8469V41.4757H189.769V220.358C189.769 236.842 186.449 251.723 179.808 264.998C173.382 278.486 163.421 289.19 149.923 297.113C136.642 305.034 120.04 308.995 100.117 308.995C73.5537 308.995 52.0239 302.679 35.529 290.048C19.0341 277.63 9.60907 260.716 7.25245 239.305H61.5566C63.2713 246.157 67.3412 251.509 73.7677 255.362C80.1942 259.43 88.1214 261.464 97.5464 261.464C108.9 261.464 117.899 258.147 124.539 251.509C131.394 245.085 134.822 234.703 134.822 220.358V194.987C129.466 203.336 122.075 210.187 112.65 215.54C103.223 220.678 92.1913 223.249 79.5523 223.249C64.7706 223.249 51.382 219.5 39.3849 212.007C27.3893 204.3 17.8565 193.487 10.7867 179.572C3.93077 165.439 0.504272 149.169 0.504272 130.755C0.504272 112.343 3.93077 96.1787 10.7867 82.2617C17.8565 68.3447 27.3893 57.6401 39.3849 50.1467C51.382 42.6532 64.7706 38.9066 79.5523 38.9066Z" fill="#EDEDED"/>
  <path d="M259.43 71.3436C265.856 61.495 273.89 53.7875 283.53 48.2198C293.169 42.4396 303.881 39.5489 315.663 39.5489V97.6784H300.561C286.85 97.6784 276.567 100.675 269.712 106.671C262.858 112.451 259.43 122.728 259.43 137.501V220.68H204.482V41.4761H259.43V71.3436Z" fill="#EDEDED"/>
  <path d="M438.023 113.735C438.023 104.315 434.809 96.8214 428.382 91.2552C421.956 85.6889 413.923 82.9043 404.282 82.9043C395.071 82.9043 387.251 85.5812 380.825 90.9334C374.612 96.2857 370.757 103.887 369.257 113.735H438.023ZM494.256 128.187C494.256 133.327 493.934 138.679 493.292 144.245H368.936C369.793 155.379 373.327 163.942 379.54 169.936C385.966 175.718 393.786 178.609 402.997 178.609C416.707 178.609 426.24 172.827 431.596 161.267H490.08C487.08 173.041 481.617 183.639 473.691 193.06C465.978 202.481 456.233 209.866 444.449 215.22C432.666 220.572 419.492 223.249 404.925 223.249C387.359 223.249 371.72 219.501 358.01 212.008C344.3 204.514 333.589 193.81 325.877 179.893C318.164 165.977 314.31 149.705 314.31 131.078C314.31 112.45 318.058 96.1794 325.556 82.2624C333.268 68.3454 343.979 57.6409 357.688 50.1474C371.4 42.654 387.145 38.9073 404.925 38.9073C422.278 38.9073 437.701 42.5462 451.198 49.8257C464.694 57.1052 475.19 67.4895 482.688 80.9786C490.4 94.4662 494.256 110.203 494.256 128.187Z" fill="#EDEDED"/>
  <path d="M673.019 41.4762L560.552 305.785H501.427L542.558 214.577L469.615 41.4762H530.99L572.441 153.559L613.572 41.4762H673.019Z" fill="#EDEDED"/>
  <path d="M724.694 223.57C711.198 223.57 699.094 221.321 688.383 216.826C677.672 212.115 669.211 205.692 662.998 197.556C656.786 189.206 653.358 179.679 652.716 168.974H682.921C683.777 177.752 687.848 184.925 695.131 190.491C702.63 196.057 712.377 198.84 724.372 198.84C735.517 198.84 744.294 196.379 750.722 191.455C757.148 186.53 760.359 180.321 760.359 172.827C760.359 165.12 756.937 159.446 750.081 155.807C743.224 151.952 732.618 148.206 718.268 144.567C705.199 141.14 694.489 137.715 686.134 134.289C677.994 130.65 670.924 125.404 664.926 118.552C659.142 111.488 656.25 102.281 656.25 90.9334C656.25 81.9422 658.929 73.6976 664.284 66.2042C669.639 58.7107 677.244 52.8229 687.099 48.5419C696.953 44.0456 708.199 41.7966 720.838 41.7966C740.335 41.7966 756.078 46.721 768.074 56.5696C780.07 66.4197 786.498 79.9072 787.356 97.0353H758.109C757.469 87.8286 753.72 80.4429 746.863 74.8752C740.225 69.309 731.228 66.5259 719.875 66.5259C709.377 66.5259 701.022 68.7734 694.811 73.2697C688.598 77.7661 685.492 83.654 685.492 90.9334C685.492 96.7137 687.313 101.532 690.955 105.386C694.811 109.025 699.522 112.022 705.093 114.377C710.876 116.519 718.803 118.98 728.87 121.765C741.514 125.19 751.792 128.616 759.719 132.041C767.645 135.252 774.393 140.177 779.96 146.814C785.748 153.452 788.746 162.123 788.958 172.827C788.958 182.462 786.286 191.133 780.928 198.84C775.572 206.548 767.965 212.651 758.109 217.146C748.473 221.428 737.336 223.57 724.694 223.57Z" fill="#EDEDED"/>
  <path d="M836.693 68.7742V172.506C836.693 181.071 838.52 187.171 842.159 190.812C845.799 194.237 852.117 195.95 861.114 195.95H882.645V220.679H856.296C840.019 220.679 827.805 216.933 819.667 209.439C811.523 201.946 807.453 189.634 807.453 172.506V68.7742H784.641V44.6883H807.453V0.368073H836.693V44.6883H882.645V68.7742H836.693Z" fill="#EDEDED"/>
  <path d="M1022.87 132.362C1022.87 119.089 1020.19 107.527 1014.83 97.6783C1009.47 87.8297 1002.19 80.3363 992.979 75.1965C983.981 69.8443 974.025 67.1689 963.099 67.1689C952.174 67.1689 942.208 69.738 933.211 74.8763C924.214 80.0146 917.038 87.5081 911.68 97.3567C906.331 107.205 903.651 118.767 903.651 132.041C903.651 145.53 906.331 157.306 911.68 167.368C917.038 177.217 924.214 184.818 933.211 190.17C942.208 195.309 952.174 197.878 963.099 197.878C974.025 197.878 983.981 195.309 992.979 190.17C1002.19 184.818 1009.47 177.217 1014.83 167.368C1020.19 157.306 1022.87 145.638 1022.87 132.362ZM873.765 132.041C873.765 114.057 877.404 98.3203 884.69 84.8312C891.976 71.1296 901.933 60.5313 914.577 53.0379C927.425 45.5445 941.677 41.7977 957.312 41.7977C972.737 41.7977 986.123 45.1165 997.478 51.7526C1008.83 58.3901 1017.29 66.7409 1022.87 76.8035V44.6885H1052.43V220.68H1022.87V187.921C1017.08 198.199 1008.4 206.763 996.837 213.614C985.482 220.252 972.197 223.569 956.992 223.569C941.35 223.569 927.214 219.716 914.577 212.007C901.933 204.3 891.976 193.489 884.69 179.572C877.404 165.655 873.765 149.811 873.765 132.041Z" fill="#EDEDED"/>
  <path d="M1096.43 220.679H1067.19V44.6881H1096.43V220.679Z" fill="#EDEDED"/>
  <path d="M1196.51 41.4762C1217.94 41.4762 1235.29 48.0061 1248.57 61.0672C1261.86 73.9129 1268.49 92.5389 1268.49 116.946V220.678H1239.58V121.123C1239.58 103.567 1235.19 90.1851 1226.4 80.9784C1217.61 71.5577 1205.62 66.8474 1190.41 66.8474C1174.99 66.8474 1162.67 71.664 1153.46 81.2986C1144.46 90.9333 1139.96 104.957 1139.96 123.37V220.678H1110.72V44.6873H1139.96V69.7383C1145.74 60.7455 1153.57 53.7877 1163.42 48.8634C1173.49 43.9391 1184.52 41.4762 1196.51 41.4762Z" fill="#EDEDED"/>
</svg>
